<mxfile host="app.diagrams.net" agent="Mozilla/5.0 (Windows NT 10.0; Win64; x64) AppleWebKit/537.36 (KHTML, like Gecko) Chrome/139.0.0.0 Safari/537.36" version="28.2.3">
  <diagram name="หน้า-1" id="5IF7EYaoN2t04k53Ebxz">
    <mxGraphModel dx="1024" dy="1192" grid="1" gridSize="10" guides="1" tooltips="1" connect="1" arrows="1" fold="1" page="1" pageScale="1" pageWidth="827" pageHeight="1169" math="0" shadow="0">
      <root>
        <mxCell id="0" />
        <mxCell id="1" parent="0" />
        <mxCell id="dBVPGYfDE0Jr9KpUh8hz-12" style="edgeStyle=orthogonalEdgeStyle;rounded=0;orthogonalLoop=1;jettySize=auto;html=1;exitX=0.5;exitY=1;exitDx=0;exitDy=0;entryX=0.5;entryY=0;entryDx=0;entryDy=0;" edge="1" parent="1" source="dBVPGYfDE0Jr9KpUh8hz-1" target="dBVPGYfDE0Jr9KpUh8hz-2">
          <mxGeometry relative="1" as="geometry" />
        </mxCell>
        <mxCell id="dBVPGYfDE0Jr9KpUh8hz-1" value="เริ่มต้น" style="ellipse;whiteSpace=wrap;html=1;" vertex="1" parent="1">
          <mxGeometry x="354" y="31" width="116" height="60" as="geometry" />
        </mxCell>
        <mxCell id="dBVPGYfDE0Jr9KpUh8hz-13" style="edgeStyle=orthogonalEdgeStyle;rounded=0;orthogonalLoop=1;jettySize=auto;html=1;exitX=0.5;exitY=1;exitDx=0;exitDy=0;entryX=0.5;entryY=0;entryDx=0;entryDy=0;" edge="1" parent="1" source="dBVPGYfDE0Jr9KpUh8hz-2" target="dBVPGYfDE0Jr9KpUh8hz-3">
          <mxGeometry relative="1" as="geometry" />
        </mxCell>
        <mxCell id="dBVPGYfDE0Jr9KpUh8hz-2" value="รับค่าจากผู้ใช้" style="rounded=0;whiteSpace=wrap;html=1;" vertex="1" parent="1">
          <mxGeometry x="371" y="130" width="86" height="40" as="geometry" />
        </mxCell>
        <mxCell id="dBVPGYfDE0Jr9KpUh8hz-14" style="edgeStyle=orthogonalEdgeStyle;rounded=0;orthogonalLoop=1;jettySize=auto;html=1;exitX=0.5;exitY=1;exitDx=0;exitDy=0;" edge="1" parent="1" source="dBVPGYfDE0Jr9KpUh8hz-3" target="dBVPGYfDE0Jr9KpUh8hz-4">
          <mxGeometry relative="1" as="geometry" />
        </mxCell>
        <mxCell id="dBVPGYfDE0Jr9KpUh8hz-3" value="คำนวณค่าความยาวของคำ&lt;div&gt;len = strlen(word)&amp;nbsp;&lt;/div&gt;" style="rounded=0;whiteSpace=wrap;html=1;" vertex="1" parent="1">
          <mxGeometry x="333" y="214" width="161" height="40" as="geometry" />
        </mxCell>
        <mxCell id="dBVPGYfDE0Jr9KpUh8hz-15" style="edgeStyle=orthogonalEdgeStyle;rounded=0;orthogonalLoop=1;jettySize=auto;html=1;exitX=0.5;exitY=1;exitDx=0;exitDy=0;entryX=0.5;entryY=0;entryDx=0;entryDy=0;" edge="1" parent="1" source="dBVPGYfDE0Jr9KpUh8hz-4" target="dBVPGYfDE0Jr9KpUh8hz-5">
          <mxGeometry relative="1" as="geometry" />
        </mxCell>
        <mxCell id="dBVPGYfDE0Jr9KpUh8hz-4" value="ตั้งค่า i = 0 , j = len -1 ,check = 1" style="rounded=0;whiteSpace=wrap;html=1;" vertex="1" parent="1">
          <mxGeometry x="324" y="297" width="179" height="40" as="geometry" />
        </mxCell>
        <mxCell id="dBVPGYfDE0Jr9KpUh8hz-16" style="edgeStyle=orthogonalEdgeStyle;rounded=0;orthogonalLoop=1;jettySize=auto;html=1;exitX=0.5;exitY=1;exitDx=0;exitDy=0;entryX=0.5;entryY=0;entryDx=0;entryDy=0;" edge="1" parent="1" source="dBVPGYfDE0Jr9KpUh8hz-5" target="dBVPGYfDE0Jr9KpUh8hz-6">
          <mxGeometry relative="1" as="geometry" />
        </mxCell>
        <mxCell id="dBVPGYfDE0Jr9KpUh8hz-24" style="edgeStyle=orthogonalEdgeStyle;rounded=0;orthogonalLoop=1;jettySize=auto;html=1;exitX=1;exitY=0.5;exitDx=0;exitDy=0;entryX=0.5;entryY=0;entryDx=0;entryDy=0;" edge="1" parent="1" source="dBVPGYfDE0Jr9KpUh8hz-5" target="dBVPGYfDE0Jr9KpUh8hz-10">
          <mxGeometry relative="1" as="geometry" />
        </mxCell>
        <mxCell id="dBVPGYfDE0Jr9KpUh8hz-5" value="i &amp;lt; j ?" style="rhombus;whiteSpace=wrap;html=1;" vertex="1" parent="1">
          <mxGeometry x="373" y="387" width="80" height="60" as="geometry" />
        </mxCell>
        <mxCell id="dBVPGYfDE0Jr9KpUh8hz-17" style="edgeStyle=orthogonalEdgeStyle;rounded=0;orthogonalLoop=1;jettySize=auto;html=1;exitX=0.5;exitY=1;exitDx=0;exitDy=0;entryX=0.5;entryY=0;entryDx=0;entryDy=0;" edge="1" parent="1" source="dBVPGYfDE0Jr9KpUh8hz-6" target="dBVPGYfDE0Jr9KpUh8hz-7">
          <mxGeometry relative="1" as="geometry" />
        </mxCell>
        <mxCell id="dBVPGYfDE0Jr9KpUh8hz-21" style="edgeStyle=orthogonalEdgeStyle;rounded=0;orthogonalLoop=1;jettySize=auto;html=1;exitX=0;exitY=0.5;exitDx=0;exitDy=0;entryX=0.5;entryY=0;entryDx=0;entryDy=0;" edge="1" parent="1" target="dBVPGYfDE0Jr9KpUh8hz-11">
          <mxGeometry relative="1" as="geometry">
            <mxPoint x="200" y="560.0000000000001" as="targetPoint" />
            <mxPoint x="385" y="535.0000000000001" as="sourcePoint" />
            <Array as="points">
              <mxPoint x="201" y="535" />
            </Array>
          </mxGeometry>
        </mxCell>
        <mxCell id="dBVPGYfDE0Jr9KpUh8hz-6" value="word[i] != word[j] ?" style="rhombus;whiteSpace=wrap;html=1;" vertex="1" parent="1">
          <mxGeometry x="345" y="490" width="136" height="90" as="geometry" />
        </mxCell>
        <mxCell id="dBVPGYfDE0Jr9KpUh8hz-7" value="แสดงผล &quot; Not Pass &quot;" style="rounded=0;whiteSpace=wrap;html=1;" vertex="1" parent="1">
          <mxGeometry x="353.5" y="620" width="119" height="40" as="geometry" />
        </mxCell>
        <mxCell id="dBVPGYfDE0Jr9KpUh8hz-19" style="edgeStyle=orthogonalEdgeStyle;rounded=0;orthogonalLoop=1;jettySize=auto;html=1;exitX=0.5;exitY=1;exitDx=0;exitDy=0;entryX=0.5;entryY=0;entryDx=0;entryDy=0;" edge="1" parent="1" source="dBVPGYfDE0Jr9KpUh8hz-8" target="dBVPGYfDE0Jr9KpUh8hz-9">
          <mxGeometry relative="1" as="geometry" />
        </mxCell>
        <mxCell id="dBVPGYfDE0Jr9KpUh8hz-8" value="check == 1?" style="rhombus;whiteSpace=wrap;html=1;" vertex="1" parent="1">
          <mxGeometry x="371" y="730" width="86" height="60" as="geometry" />
        </mxCell>
        <mxCell id="dBVPGYfDE0Jr9KpUh8hz-9" value="สิ้นสุด" style="ellipse;whiteSpace=wrap;html=1;" vertex="1" parent="1">
          <mxGeometry x="356" y="840" width="116" height="60" as="geometry" />
        </mxCell>
        <mxCell id="dBVPGYfDE0Jr9KpUh8hz-28" style="edgeStyle=orthogonalEdgeStyle;rounded=0;orthogonalLoop=1;jettySize=auto;html=1;exitX=0.5;exitY=1;exitDx=0;exitDy=0;entryX=1;entryY=0.5;entryDx=0;entryDy=0;" edge="1" parent="1" target="dBVPGYfDE0Jr9KpUh8hz-9">
          <mxGeometry relative="1" as="geometry">
            <mxPoint x="473.9999999999999" y="870" as="targetPoint" />
            <mxPoint x="556.9999999999999" y="780" as="sourcePoint" />
            <Array as="points">
              <mxPoint x="574" y="780" />
              <mxPoint x="574" y="870" />
            </Array>
          </mxGeometry>
        </mxCell>
        <mxCell id="dBVPGYfDE0Jr9KpUh8hz-10" value="แสดง &quot; Pass &quot;" style="rounded=0;whiteSpace=wrap;html=1;" vertex="1" parent="1">
          <mxGeometry x="530" y="740" width="86" height="40" as="geometry" />
        </mxCell>
        <mxCell id="dBVPGYfDE0Jr9KpUh8hz-23" style="edgeStyle=orthogonalEdgeStyle;rounded=0;orthogonalLoop=1;jettySize=auto;html=1;exitX=0.5;exitY=1;exitDx=0;exitDy=0;entryX=0;entryY=0.5;entryDx=0;entryDy=0;" edge="1" parent="1" source="dBVPGYfDE0Jr9KpUh8hz-11" target="dBVPGYfDE0Jr9KpUh8hz-8">
          <mxGeometry relative="1" as="geometry">
            <mxPoint x="350" y="760" as="targetPoint" />
            <Array as="points">
              <mxPoint x="201" y="760" />
              <mxPoint x="371" y="760" />
            </Array>
          </mxGeometry>
        </mxCell>
        <mxCell id="dBVPGYfDE0Jr9KpUh8hz-11" value="ตั้งค่า check = 0" style="rounded=0;whiteSpace=wrap;html=1;" vertex="1" parent="1">
          <mxGeometry x="141" y="620" width="119" height="40" as="geometry" />
        </mxCell>
        <mxCell id="dBVPGYfDE0Jr9KpUh8hz-18" style="edgeStyle=orthogonalEdgeStyle;rounded=0;orthogonalLoop=1;jettySize=auto;html=1;exitX=0.5;exitY=1;exitDx=0;exitDy=0;entryX=0.48;entryY=0.102;entryDx=0;entryDy=0;entryPerimeter=0;" edge="1" parent="1" source="dBVPGYfDE0Jr9KpUh8hz-7" target="dBVPGYfDE0Jr9KpUh8hz-8">
          <mxGeometry relative="1" as="geometry" />
        </mxCell>
        <mxCell id="dBVPGYfDE0Jr9KpUh8hz-29" value="&lt;font style=&quot;font-size: 18px;&quot;&gt;ใช่&lt;/font&gt;" style="text;html=1;align=center;verticalAlign=middle;resizable=0;points=[];autosize=1;strokeColor=none;fillColor=none;" vertex="1" parent="1">
          <mxGeometry x="494" y="382" width="40" height="40" as="geometry" />
        </mxCell>
        <mxCell id="dBVPGYfDE0Jr9KpUh8hz-30" value="&lt;font style=&quot;font-size: 18px;&quot;&gt;ใช่&lt;/font&gt;" style="text;html=1;align=center;verticalAlign=middle;resizable=0;points=[];autosize=1;strokeColor=none;fillColor=none;" vertex="1" parent="1">
          <mxGeometry x="220" y="493" width="40" height="40" as="geometry" />
        </mxCell>
        <mxCell id="dBVPGYfDE0Jr9KpUh8hz-31" value="&lt;font style=&quot;font-size: 18px;&quot;&gt;ไม่ใช่&lt;/font&gt;" style="text;html=1;align=center;verticalAlign=middle;resizable=0;points=[];autosize=1;strokeColor=none;fillColor=none;" vertex="1" parent="1">
          <mxGeometry x="220" y="773" width="60" height="40" as="geometry" />
        </mxCell>
      </root>
    </mxGraphModel>
  </diagram>
</mxfile>
